<svg width="1038.48349" height="784.40632" xmlns="http://www.w3.org/2000/svg">
 <title>a_moment_to_relax</title>

 <g>
  <title>background</title>
  <rect fill="none" id="canvas_background" height="602" width="802" y="-1" x="-1"/>
 </g>
 <g>
  <title>Layer 1</title>
  <path id="svg_1" fill="#3e4954" d="m267.4835,691.97896s5,-21 40,-14s40,14 40,14l-80,0z"/>
  <path id="svg_2" fill="#3e4954" d="m94.9835,664.47896s5,-21 40,-14s40,14 40,14l-80,0z"/>
  <path id="svg_3" fill="#3e4954" d="m387.4835,691.97896s-28,-17 -40,0l40,0z"/>
  <path id="svg_4" fill="#3e4954" d="m256.9835,643.97896s-28,-17 -40,0l40,0z"/>
  <path id="svg_5" fill="#3e4954" d="m99.90875,628.35975c8.33613,15.45972 26.0284,22.09625 26.0284,22.09625s4.17672,-18.42864 -4.15941,-33.88837s-26.02841,-22.09625 -26.02841,-22.09625s-4.17672,18.42864 4.15942,33.88837z"/>
  <path id="svg_6" fill="#66ffff" d="m105.63849,623.27361c15.05015,9.05467 20.84644,27.03974 20.84644,27.03974s-18.60483,3.30455 -33.655,-5.75012s-20.84644,-27.03975 -20.84644,-27.03975s18.60484,-3.30455 33.655,5.75013z"/>
  <path id="svg_7" fill="#3e4954" d="m931.9835,679.47896s5,-21 40,-14s40,14 40,14l-80,0z"/>
  <path id="svg_8" fill="#3e4954" d="m851.9835,691.97896q-36.47626,-5.71032 -70.14289,-9.71417l8.64289,-17.28583c-3,-1 -16,9 -16,9l11,-50c-15,2 -22,53 -22,53l-17,-17l8.36834,19.24713c-68.68127,-7.21667 -127.94677,-9.46881 -177.7658,-8.95227l7.39746,-14.79486c-3,-1 -16,9 -16,9l11,-50c-15,2 -22,53 -22,53l-17,-17l8.8634,20.38586a997.84838,997.84838 0 0 0 -102.02258,8.21589c7.38153,-22.99579 33.15918,-45.10175 33.15918,-45.10175c-19.82056,6.16638 -30.13214,16.2124 -35.4693,25.5246a401.561,401.561 0 0 1 21.4693,-139.0246s-40,90 -34,150l0.76129,10.65808c-34.79938,5.42877 -52.26129,10.84192 -52.26129,10.84192l471,0z"/>
  <path id="svg_9" fill="#3e4954" d="m590.9835,737.47896s184,-27 298,0"/>
  <path id="svg_10" fill="#3e4954" d="m319.9835,774.47896s184,-27 298,0"/>
  <path id="svg_11" fill="#3e4954" d="m660.9835,784.40632s108.97986,-27.63867 176.5,0"/>
  <path id="svg_12" fill="#3e4954" d="m965.37217,673.43794l-1.77734,-0.918c23.082,-44.624 10.73925,-102.5752 -3.67872,-143.332a439.29061,439.29061 0 0 0 -37.27783,-78.6748l1.69043,-1.06836a441.53687,441.53687 0 0 1 37.47217,79.0752c14.55078,41.12988 26.98047,99.65918 3.57129,144.91796z"/>
  <rect id="svg_13" fill="#3e4954" transform="matrix(0.17975,-0.98371,0.98371,0.17975,252.43209,1428.3424) " height="1.99936" width="72.18033" y="542.27612" x="1021.65158"/>
  <rect id="svg_14" fill="#3e4954" transform="rotate(-42.93967819213867 -222.2096710205081,792.1043701171873) " height="98.35141" width="2.00072" y="1347.70447" x="786.53172"/>
  <rect id="svg_15" fill="#3e4954" transform="rotate(-54.137149810791016 -176.97520446777358,1096.475830078125) " height="2.00031" width="58.00862" y="1766.75148" x="875.26224"/>
  <circle id="svg_16" fill="#66ffff" r="10" cy="420.97896" cx="988.48349"/>
  <circle id="svg_17" fill="#3e4954" r="10" cy="497.97896" cx="879.48349"/>
  <circle id="svg_18" fill="#3e4954" r="10" cy="507.97896" cx="923.48349"/>
  <circle id="svg_19" fill="#66ffff" r="10" cy="546.97896" cx="903.48349"/>
  <circle id="svg_20" fill="#3e4954" r="10" cy="571.97896" cx="1028.48349"/>
  <circle id="svg_21" fill="#3e4954" r="10" cy="582.97896" cx="995.48349"/>
  <circle id="svg_22" fill="#3e4954" r="10" cy="614.97896" cx="1018.48349"/>
  <circle id="svg_23" fill="#3e4954" r="10" cy="432.97896" cx="913.48349"/>
  <path id="svg_24" fill="#f2f2f2" d="m328.26312,379.97159c0,123.61 -73.4842,166.77 -164.13156,166.77s-164.13156,-43.16 -164.13156,-166.77s164.13156,-280.86149 164.13156,-280.86149s164.13156,157.25146 164.13156,280.86149z"/>
  <polygon id="svg_25" fill="#3e4954" points="158.153 527.833 159.833 424.383 229.79 296.4 160.097 408.154 160.852 361.639 209.067 269.044 161.052 349.329 161.052 349.329 162.412 265.669 214.04 191.952 162.625 252.514 163.474 99.11 158.138 302.188 158.576 293.811 106.085 213.464 157.735 309.893 152.844 403.327 152.698 400.847 92.185 316.294 152.515 409.608 151.903 421.293 151.794 421.469 151.844 422.428 139.435 659.478 156.014 659.478 158.003 537.037 218.185 443.952 158.153 527.833"/>
  <path id="svg_26" fill="#f2f2f2" d="m869.64715,343.12173c0,151.01141 -89.77389,203.739 -200.51559,203.739s-200.51558,-52.72757 -200.51558,-203.739s200.51558,-343.12173 200.51558,-343.12173s200.51559,192.11033 200.51559,343.12173z"/>
  <polygon id="svg_27" fill="#3e4954" points="661.827 523.761 663.88 397.378 749.345 241.024 664.202 377.552 665.126 320.725 724.028 207.605 665.37 305.687 665.37 305.687 667.03 203.481 730.104 113.423 667.291 187.409 668.329 0 661.809 248.096 662.345 237.861 598.218 139.704 661.317 257.508 655.341 371.654 655.164 368.625 581.236 265.329 654.94 379.328 654.192 393.603 654.059 393.818 654.12 394.99 638.96 684.589 659.214 684.589 661.645 535.005 735.167 421.285 661.827 523.761"/>
  <path id="svg_28" fill="#ffb8b8" d="m507.16731,560.61694l9.13712,28.28158s-8.26692,26.54119 -4.351,56.12808s1.74041,30.45709 1.74041,30.45709s-39.12624,-2.25247 -35.21033,9.49527s42.17195,4.86308 42.17195,4.86308s7.34724,-1.97822 10.82805,-22.86308s12.23232,-61.11148 12.23232,-61.11148l-8.22935,-37.9749l-28.31917,-7.27564z"/>
  <path id="svg_29" fill="#66ffff" d="m510.21302,502.74846s-16.53386,6.09142 -16.53386,22.62527s6.09142,39.15912 10.00734,40.46442s30.022,19.14446 34.8081,6.52652s-28.28158,-69.61621 -28.28158,-69.61621z"/>
  <polygon id="svg_30" fill="#ffb8b8" points="648.575 698.544 683.383 697.239 709.925 693.323 702.093 719.429 637.698 721.169 648.575 698.544"/>
  <path id="svg_31" fill="#26323f" d="m698.6119,702.02487s-0.4351,-9.57223 -4.351,-9.13712s-1.3053,-3.48081 2.17551,-4.351s13.48814,-5.22121 13.48814,-5.22121l39.5942,2.61062s25.671,22.62527 15.22855,34.80811s-37.41871,1.30531 -37.41871,1.30531l-29.15179,0.4351s-9.57223,-15.66369 0.4351,-20.44981z"/>
  <polygon id="svg_32" fill="#ffb8b8" points="714.276 668.522 726.893 727.696 753 722.475 738.206 648.507 722.542 640.24 714.276 668.522"/>
  <path id="svg_33" fill="#26323f" d="m564.16558,661.12535s-73.097,33.0677 -42.20483,66.5705c0,0 0,15.66365 32.6326,12.61794s95.7223,-8.702 98.768,-6.96162s12.61794,-34.373 4.351,-36.11341s-18.27426,-3.91591 -18.27426,-3.91591s8.702,-1.30531 8.702,-8.702c0,0 24.80078,-1.74041 32.1975,-17.404s14.35835,-27.41139 14.35835,-27.41139l16.96895,43.51014s19.57956,-36.11342 34.373,-20.01467c0,0 -16.53385,-103.98922 -29.15179,-113.56145s-21.32,-12.61794 -33.0677,-3.91591s-22.62527,30.8922 -22.62527,30.8922l-97.02755,84.40958z"/>
  <path id="svg_34" fill="#26323f" d="m738.64122,709.8567a98.03831,98.03831 0 0 0 -8.702,7.39672c-3.48081,3.48081 -8.26692,1.74041 -8.702,0s-8.26693,1.30531 -9.13713,13.92324s-6.09142,23.93058 7.83182,27.84649s13.48815,15.22855 13.48815,15.22855a46.93427,46.93427 0 0 0 35.2432,2.1755c19.57956,-6.52652 12.61794,-13.48814 12.61794,-13.48814l-26.10608,-43.075s-6.96167,-13.05307 -16.5339,-10.00736z"/>
  <path id="svg_35" fill="#ffb8b8" d="m666.4144,494.04643s41.76973,14.35835 46.12074,17.40406s23.93057,17.404 14.35835,24.80077s-17.40406,12.18284 -36.11342,6.52652s-39.59422,-23.06037 -39.59422,-23.06037l15.22855,-25.67098z"/>
  <path id="svg_36" fill="#66ffff" d="m624.64467,474.90197s16.53385,-3.04571 28.28159,3.48081s21.75506,19.57956 21.75506,19.57956s-10.87753,23.06038 -18.70935,26.54119s-22.19022,-13.92325 -22.19022,-13.92325l-9.13708,-35.67831z"/>
  <path id="svg_37" fill="#ffb8b8" d="m548.50193,462.28403s0.43511,16.969 -1.3053,18.70936s20.88486,53.08237 45.68564,30.4571s5.65632,-31.7624 5.65632,-31.7624s-9.13713,-16.969 -8.702,-18.70936s-40.46442,0 -40.46442,0l-0.87024,1.3053z"/>
  <path id="svg_38" opacity="0.1" d="m548.50193,462.28403s0.43511,16.969 -1.3053,18.70936s20.88486,53.08237 45.68564,30.4571s5.65632,-31.7624 5.65632,-31.7624s-9.13713,-16.969 -8.702,-18.70936s-40.46442,0 -40.46442,0l-0.87024,1.3053z"/>
  <path id="svg_39" fill="#66ffff" d="m555.46356,494.91663s16.53385,11.31264 23.49547,8.702s15.66365,-13.92324 16.53385,-14.79344s45.25054,88.32557 45.25054,88.32557s-6.52652,32.6326 -23.93057,42.20483s-17.18651,17.1865 -19.362,23.713s-30.23955,-20.66731 -30.23955,-20.66731l-17.83915,-75.70764l0,-46.12069l6.09141,-5.65632z"/>
  <path id="svg_40" fill="#0f1c2a" d="m548.28438,474.68442s-5.43876,-1.08775 -11.09508,3.69836s-32.1975,22.62527 -30.8922,24.36568s13.053,26.54118 15.66365,36.54851s6.52652,11.31264 6.52652,11.31264s9.13713,6.52652 7.83183,11.31263s-6.96163,70.05132 0.8702,84.40966s6.52652,26.97629 4.351,30.4571s20.88487,-10.00733 20.88487,-10.00733s34.373,-27.84649 36.98361,-36.11342a97.26279,97.26279 0 0 0 3.48081,-17.404s-22.19017,-87.89047 -29.15179,-92.67659s-25.45342,-45.90324 -25.45342,-45.90324z"/>
  <path id="svg_41" fill="#0f1c2a" d="m596.08437,475.02853s10.72114,-6.65308 12.89665,-4.91267s22.62527,1.7404 23.06037,3.48081s1.30531,43.51013 16.09875,54.38767s5.22122,32.6326 5.22122,32.6326l10.87753,17.404s-59.17285,56.99363 -55.25787,37.41872c0.21755,-1.08776 0,-1.30531 0,-1.30531s-23.06037,-98.768 -20.01466,-103.98922s8.57969,-28.89863 7.11801,-35.1166z"/>
  <path id="svg_42" fill="#ffb8b8" d="m687.29926,514.9313l-59.17378,20.44976s-58.73868,13.92324 -49.60155,30.022s47.86114,-11.31263 47.86114,-11.31263l78.7996,-8.8291s31.28108,-26.41412 -17.88541,-30.33003z"/>
  <circle id="svg_43" fill="#ffb8b8" r="32.1975" cy="446.18528" cx="571.9974"/>
  <path id="svg_44" fill="#2f2e41" d="m546.35644,414.18654l-5.95587,-2.16578s12.45312,-12.45312 29.77935,-11.37019l-4.87311,-4.873s11.91174,-4.33147 22.74055,7.03872c5.69249,5.97708 12.27878,13.00279 16.38465,20.9172l6.37832,0l-2.66207,5.32414l9.31725,5.32415l-9.56325,-0.95636a26.866,26.866 0 0 1 -0.90453,13.789l-2.16569,5.95578s-8.66311,-17.32606 -8.66311,-19.49184l0,5.41441s-5.95587,-4.87294 -5.95587,-8.12157l-3.24863,3.79009l-1.62431,-5.95587l-20.03331,5.95587l3.24863,-4.87294l-12.45312,1.62432l4.8731,-5.95587s-14.07744,7.03872 -14.619,12.99458c-0.54138,5.95579 -7.58,13.536 -7.58,13.536l-3.24863,-5.4144s-4.8731,-24.36488 10.82865,-32.48644z"/>
 </g>
</svg>